<svg width="122" height="48" viewBox="0 0 122 48" fill="none" xmlns="http://www.w3.org/2000/svg">
<path fill-rule="evenodd" clip-rule="evenodd" d="M28.6723 0.0812319L42.8805 35.6485L42.8621 35.6959L38.1057 48L32.467 35.1326H14.4495L10.9666 43.5282H0.5L17.7584 0H28.64L28.6723 0.0812319ZM17.4032 26.8661H29.5188L23.1283 11.2683L17.4032 26.8661Z" fill="#0052CC"/>
<path d="M56.1572 0.000362072H45.5798L38.8721 17.6955L44.4188 31.1285L56.1572 0.000362072Z" fill="#0052CC"/>
<path d="M115.439 33.9748C112.891 33.9748 111.382 32.5379 111.382 30.4321C111.382 28.2272 113.065 26.8398 115.86 26.6169L119.818 26.2948V25.8984C119.818 23.5449 118.408 22.8016 116.651 22.8016C114.573 22.8016 113.337 23.7431 113.337 25.3534H111.778C111.778 22.9255 113.757 21.3647 116.701 21.3647C119.471 21.3647 121.5 22.7521 121.5 25.9232V33.6775H120.065L119.842 31.5717C119.1 33.0829 117.468 33.9748 115.439 33.9748ZM115.835 32.5875C118.358 32.5875 119.818 30.8285 119.818 28.2272V27.5831L116.28 27.8556C114.029 28.0538 113.114 29.0447 113.114 30.3826C113.114 31.8442 114.202 32.5875 115.835 32.5875Z" fill="black"/>
<path d="M110.215 21.5381V23.0741H109.275C107.074 23.0741 105.664 24.5605 105.664 26.8397V33.6774H103.957V21.6867H105.565L105.688 23.5448C106.158 22.2565 107.42 21.4142 109.102 21.4142C109.473 21.4142 109.795 21.439 110.215 21.5381Z" fill="black"/>
<path d="M94.4712 33.9748C91.9233 33.9748 90.4144 32.5379 90.4144 30.4321C90.4144 28.2272 92.0965 26.8398 94.8917 26.6169L98.8495 26.2948V25.8984C98.8495 23.5449 97.4395 22.8016 95.6833 22.8016C93.6054 22.8016 92.3686 23.7431 92.3686 25.3534H90.8102C90.8102 22.9255 92.7891 21.3647 95.7327 21.3647C98.5032 21.3647 100.532 22.7521 100.532 25.9232V33.6775H99.0969L98.8743 31.5717C98.1322 33.0829 96.4996 33.9748 94.4712 33.9748ZM94.8669 32.5875C97.3901 32.5875 98.8495 30.8285 98.8495 28.2272V27.5831L95.3122 27.8556C93.0612 28.0538 92.1459 29.0447 92.1459 30.3826C92.1459 31.8442 93.2343 32.5875 94.8669 32.5875Z" fill="black"/>
<path d="M82.8736 33.6774L77.9758 21.6866H79.8063L82.8983 29.4162C83.2199 30.2833 83.5415 31.1008 83.7641 31.8936C83.9868 31.0761 84.3083 30.2833 84.6546 29.4162L87.7962 21.6866H89.5525L84.5804 33.6774H82.8736Z" fill="black"/>
<path d="M64.7591 33.6774H62.9533L69.459 15.9391H71.6606L78.2405 33.6774H76.3853L74.6537 28.9703H66.4906L64.7591 33.6774ZM70.3248 18.4413L67.0348 27.4095H74.0848L70.7701 18.4413C70.6958 18.1935 70.5722 17.8962 70.5474 17.7228C70.5227 17.8715 70.4237 18.1935 70.3248 18.4413Z" fill="black"/>
</svg>
